<svg width="45" height="45" viewBox="0 0 45 45" fill="none" xmlns="http://www.w3.org/2000/svg">
<rect width="45" height="45" rx="5" fill="#229ED9"/>
<path d="M7.23928 20.6235C15.9862 16.8135 21.8174 14.3015 24.733 13.0879C33.0674 9.62244 34.7971 9.02057 35.9268 9.00018C36.1752 8.99619 36.7283 9.0576 37.0893 9.3494C37.3893 9.59549 37.4737 9.9283 37.5158 10.162C37.5533 10.3954 37.6049 10.9274 37.5627 11.3428C37.1127 16.0865 35.158 27.5981 34.1643 32.9114C33.7471 35.1595 32.9174 35.9132 32.1158 35.9868C30.3721 36.1471 29.0502 34.8356 27.3627 33.7298C24.7237 31.9987 23.233 30.9215 20.669 29.2326C17.7065 27.2807 19.6283 26.2078 21.3158 24.4546C21.7565 23.9957 29.4346 17.0137 29.5799 16.3804C29.5987 16.3012 29.6174 16.0059 29.4393 15.8503C29.2658 15.6942 29.008 15.7476 28.8205 15.7898C28.5533 15.8498 24.3393 18.6379 16.1643 24.1537C14.969 24.9759 13.8862 25.3767 12.9112 25.3556C11.8424 25.3326 9.7799 24.7499 8.24709 24.2521C6.37209 23.6414 4.87678 23.3184 5.00803 22.281C5.07365 21.741 5.81896 21.1884 7.23928 20.6235Z" fill="white"/>
</svg>
