<svg width="31" height="19" viewBox="0 0 31 19" fill="none" xmlns="http://www.w3.org/2000/svg">
<path d="M23.6325 1.81282L24.17 1.11282C24.538 0.561169 25.11 0.178297 25.7603 0.0484285C26.4106 -0.0814404 27.0859 0.0523336 27.6375 0.420321C28.1892 0.788309 28.572 1.36037 28.7019 2.01065C28.8318 2.66093 28.698 3.33617 28.33 3.88782C27.272 5.42265 26.0424 6.83176 24.665 8.08782C24.3083 8.41741 23.9414 8.73589 23.565 9.04282C26.31 10.5028 28.54 12.7428 29.735 15.1328C29.8939 15.4275 29.992 15.7511 30.0235 16.0844C30.055 16.4178 30.0191 16.754 29.9182 17.0732C29.8172 17.3925 29.6532 17.6882 29.4358 17.9428C29.2184 18.1974 28.952 18.4058 28.6526 18.5555C28.3531 18.7052 28.0266 18.7933 27.6925 18.8144C27.3584 18.8356 27.0234 18.7894 26.7074 18.6786C26.3915 18.5679 26.101 18.3948 25.8532 18.1696C25.6054 17.9444 25.4054 17.6718 25.265 17.3678C24.1225 15.0878 21.165 12.8578 18.025 12.4003L17.5 12.3428V16.2503C17.5 16.9134 17.2366 17.5492 16.7678 18.0181C16.2989 18.4869 15.663 18.7503 15 18.7503C6.275 18.7503 0 11.5803 0 2.50032C0 1.83728 0.263393 1.2014 0.732234 0.732554C1.20107 0.263714 1.83696 0.000320416 2.5 0.000320416C3.16304 0.000320416 3.79893 0.263714 4.26777 0.732554C4.73661 1.2014 5 1.83728 5 2.50032C5 7.18532 7.445 11.7478 11.9875 13.2753L12.5 13.4328V2.50032C12.5 1.07782 13.645 0.0778204 15 0.000320416C15.5634 -0.00013555 16.1105 0.189735 16.5524 0.539145C16.9944 0.888554 17.3054 1.37701 17.435 1.92532L17.485 2.20782L17.5025 6.95782C18.7425 6.44282 20.015 5.57532 21.2725 4.41282C22.1425 3.61282 22.9075 2.73282 23.6325 1.81282Z" fill="white"/>
</svg>
