<svg width="45" height="45" viewBox="0 0 45 45" fill="none" xmlns="http://www.w3.org/2000/svg">
<rect width="45" height="45" rx="5" fill="#0077FF"/>
<path d="M31.6325 14.8128L32.17 14.1128C32.538 13.5612 33.11 13.1783 33.7603 13.0484C34.4106 12.9186 35.0859 13.0523 35.6375 13.4203C36.1892 13.7883 36.572 14.3604 36.7019 15.0106C36.8318 15.6609 36.698 16.3362 36.33 16.8878C35.272 18.4227 34.0424 19.8318 32.665 21.0878C32.3083 21.4174 31.9414 21.7359 31.565 22.0428C34.31 23.5028 36.54 25.7428 37.735 28.1328C37.8939 28.4275 37.992 28.7511 38.0235 29.0844C38.055 29.4178 38.0191 29.754 37.9182 30.0732C37.8172 30.3925 37.6532 30.6882 37.4358 30.9428C37.2184 31.1974 36.952 31.4058 36.6526 31.5555C36.3531 31.7052 36.0266 31.7933 35.6925 31.8144C35.3584 31.8356 35.0234 31.7894 34.7074 31.6786C34.3915 31.5679 34.101 31.3948 33.8532 31.1696C33.6054 30.9444 33.4054 30.6718 33.265 30.3678C32.1225 28.0878 29.165 25.8578 26.025 25.4003L25.5 25.3428V29.2503C25.5 29.9134 25.2366 30.5492 24.7678 31.0181C24.2989 31.4869 23.663 31.7503 23 31.7503C14.275 31.7503 8 24.5803 8 15.5003C8 14.8373 8.26339 14.2014 8.73223 13.7326C9.20107 13.2637 9.83696 13.0003 10.5 13.0003C11.163 13.0003 11.7989 13.2637 12.2678 13.7326C12.7366 14.2014 13 14.8373 13 15.5003C13 20.1853 15.445 24.7478 19.9875 26.2753L20.5 26.4328V15.5003C20.5 14.0778 21.645 13.0778 23 13.0003C23.5634 12.9999 24.1105 13.1897 24.5524 13.5391C24.9944 13.8886 25.3054 14.377 25.435 14.9253L25.485 15.2078L25.5025 19.9578C26.7425 19.4428 28.015 18.5753 29.2725 17.4128C30.1425 16.6128 30.9075 15.7328 31.6325 14.8128Z" fill="white"/>
</svg>
