<svg width="30" height="25" viewBox="0 0 30 25" fill="none" xmlns="http://www.w3.org/2000/svg">
<path d="M2.06204 10.7036C10.1166 7.19512 15.4863 4.8819 18.1712 3.76436C25.8459 0.573178 27.4387 0.0189404 28.479 0.000163605C28.7078 -0.00350542 29.2171 0.0530402 29.5495 0.321742C29.8257 0.548358 29.9034 0.85483 29.9423 1.07001C29.9768 1.28497 30.0243 1.77489 29.9855 2.15733C29.5711 6.52563 27.7711 17.1261 26.856 22.0188C26.4718 24.089 25.7078 24.7831 24.9697 24.8509C23.364 24.9985 22.1467 23.7907 20.5928 22.7725C18.1626 21.1784 16.7899 20.1865 14.4288 18.6312C11.7008 16.8339 13.4705 15.8458 15.0245 14.2314C15.4302 13.8089 22.5006 7.37943 22.6345 6.79627C22.6517 6.72332 22.669 6.45138 22.505 6.30807C22.3453 6.16434 22.1079 6.21354 21.9352 6.25239C21.6892 6.30764 17.8086 8.8751 10.2807 13.9543C9.17994 14.7114 8.18283 15.0805 7.285 15.0611C6.30084 15.0399 4.40159 14.5034 2.99009 14.045C1.26349 13.4825 -0.11347 13.1851 0.00739162 12.2299C0.0678226 11.7326 0.754146 11.2237 2.06204 10.7036Z" fill="white"/>
</svg>
